<svg id="svg" version="1.1" xmlns="http://www.w3.org/2000/svg" xmlns:xlink="http://www.w3.org/1999/xlink" width="400" height="400" viewBox="0, 0, 400,400"><g id="svgg"><path id="path0" d="M396.486 16.875 C 394.961 31.976,387.138 68.953,379.693 96.250 C 378.193 101.750,374.836 110.680,372.233 116.095 C 369.630 121.509,367.500 127.606,367.500 129.642 C 367.500 131.679,364.125 139.326,360.000 146.635 C 355.875 153.944,352.500 161.184,352.500 162.725 C 352.500 164.265,349.125 170.526,345.000 176.638 C 340.875 182.750,337.500 189.244,337.500 191.069 C 337.500 192.894,335.913 195.705,333.974 197.314 C 332.035 198.923,326.183 206.936,320.969 215.120 C 315.755 223.304,310.592 230.000,309.495 230.000 C 308.398 230.000,307.500 231.349,307.500 232.998 C 307.500 236.194,304.421 239.576,271.999 271.999 C 239.576 304.421,236.194 307.500,232.998 307.500 C 231.349 307.500,230.000 308.398,230.000 309.495 C 230.000 310.592,223.304 315.755,215.120 320.969 C 206.936 326.183,198.923 332.035,197.314 333.974 C 195.705 335.913,192.894 337.500,191.069 337.500 C 189.244 337.500,182.750 340.875,176.638 345.000 C 170.526 349.125,164.265 352.500,162.725 352.500 C 161.184 352.500,153.944 355.875,146.635 360.000 C 139.326 364.125,131.679 367.500,129.642 367.500 C 127.606 367.500,121.509 369.630,116.095 372.233 C 110.680 374.836,101.750 378.185,96.250 379.675 C 70.047 386.772,39.290 393.489,20.000 396.327 C 1.895 398.990,28.440 399.493,199.375 399.726 L 400.000 400.000 400.000 200.000 C 400.000 90.000,399.593 -0.000,399.095 -0.000 C 398.598 -0.000,397.423 7.594,396.486 16.875 " stroke="none" fill="#2C2C2C" fill-rule="evenodd"></path></g></svg>